<svg xmlns="http://www.w3.org/2000/svg" width="64" height="64" viewBox="0 0 64 64">
  <defs>
    <linearGradient id="metal0" x1="0%" y1="0%" x2="80%" y2="100%">
      <stop offset="0%" stop-color="#add6e5" />
      <stop offset="38%" stop-color="#71b9d2" />
      <stop offset="100%" stop-color="#3b606d" />
    </linearGradient>
    <clipPath id="hull">
      <polygon points="32.0,3.0 41.4,19.1 59.6,23.0 43.4,35.7 47.3,53.0 32.0,47.0 18.5,50.6 17.7,36.6 3.5,22.7 22.6,19.1" fill="white" fill-opacity=".8" stroke="none" stroke-width="1.5" />
    </clipPath>
  </defs>
  <circle cx="32" cy="32" r="29" fill="#10232c" stroke="#71b9d2" stroke-width="2" />
  <polygon points="32.0,3.0 41.4,19.1 59.6,23.0 43.4,35.7 47.3,53.0 32.0,47.0 18.5,50.6 17.7,36.6 3.5,22.7 22.6,19.1" fill="url(#metal0)" fill-opacity=".8" stroke="#f2e9d7" stroke-width="1.5" />
  <g clip-path="url(#hull)">
    <path d="M0 0H64.0L16.0 64.0H0Z" fill="#e4f8ff" opacity=".10" />
    <path d="M32.0 0L44.8 64.0H64.0V0Z" fill="#000b20" opacity=".20" />
    <path d="M0 26.88L64.0 11.52M0 51.2L64.0 35.84" fill="none" stroke="#eaf6ff" stroke-width="0.768" opacity=".20" />
  </g>
  <circle cx="32" cy="32" r="4" fill="#10232c" stroke="#f2e9d7" stroke-width="2" />
  <circle cx="33.92" cy="31.36" r="2.24" fill="#f4edc6" opacity=".85" />
</svg>