<svg xmlns="http://www.w3.org/2000/svg" width="64" height="64" viewBox="0 0 64 64">
  <defs>
    <linearGradient id="metal0" x1="0%" y1="0%" x2="80%" y2="100%">
      <stop offset="0%" stop-color="#f7b38e" />
      <stop offset="38%" stop-color="#f27c3d" />
      <stop offset="100%" stop-color="#7e4020" />
    </linearGradient>
    <linearGradient id="metal1" x1="0%" y1="0%" x2="80%" y2="100%">
      <stop offset="0%" stop-color="#fff9ea" />
      <stop offset="38%" stop-color="#fff4da" />
      <stop offset="100%" stop-color="#857f71" />
    </linearGradient>
    <clipPath id="hull">
      <g fill="white" fill-opacity=".8" stroke="none" stroke-width="2" stroke-linejoin="round" stroke-linecap="round">
        <path d="M32 3C16 20 43 21 21 40c-7 14 5 23 17 19 18-8 17-29 5-36 1 13-12 13-11-20Z" />
      </g>
    </clipPath>
  </defs>
  <circle cx="32" cy="32" r="29" fill="#101a27" stroke="#f27c3d" stroke-width="2" opacity=".8" />
  <g fill="url(#metal0)" fill-opacity=".8" stroke="#f5efda" stroke-width="2" stroke-linejoin="round" stroke-linecap="round">
    <path d="M32 3C16 20 43 21 21 40c-7 14 5 23 17 19 18-8 17-29 5-36 1 13-12 13-11-20Z" />
  </g>
  <g clip-path="url(#hull)">
    <path d="M0 0H64.0L16.0 64.0H0Z" fill="#e4f8ff" opacity=".10" />
    <path d="M32.0 0L44.8 64.0H64.0V0Z" fill="#000b20" opacity=".20" />
    <path d="M0 26.88L64.0 11.52M0 51.2L64.0 35.84" fill="none" stroke="#eaf6ff" stroke-width="0.768" opacity=".20" />
  </g>
  <circle cx="32" cy="32" r="3" fill="url(#metal1)" />
  <circle cx="33.92" cy="31.36" r="2.24" fill="#f4edc6" opacity=".85" />
</svg>