<svg xmlns="http://www.w3.org/2000/svg" width="64" height="64" viewBox="0 0 128 128">
  <defs>
    <linearGradient id="metal0" x1="0%" y1="0%" x2="80%" y2="100%">
      <stop offset="0%" stop-color="#b6a2a2" />
      <stop offset="38%" stop-color="#8a6060" />
      <stop offset="100%" stop-color="#4a2f2f" />
    </linearGradient>
    <linearGradient id="metal1" x1="0%" y1="0%" x2="80%" y2="100%">
      <stop offset="0%" stop-color="#fff8d8" />
      <stop offset="38%" stop-color="#fff3bc" />
      <stop offset="100%" stop-color="#857e62" />
    </linearGradient>
    <clipPath id="hull">
      <path d="M64 6 116 34 116 94 64 122 12 94 12 34Z" fill="white" stroke="none" stroke-width="4" stroke-linejoin="round" />
    </clipPath>
  </defs>
  <path d="M64 6 116 34 116 94 64 122 12 94 12 34Z" fill="#080d16" stroke="#080d16" stroke-width="13" stroke-linejoin="round" />
  <path d="M64 6 116 34 116 94 64 122 12 94 12 34Z" fill="url(#metal0)" stroke="#e0a08a" stroke-width="4" stroke-linejoin="round" />
  <g clip-path="url(#hull)">
    <path d="M0 0H128.0L32.0 128.0H0Z" fill="#e4f8ff" opacity=".10" />
    <path d="M64.0 0L89.6 128.0H128.0V0Z" fill="#000b20" opacity=".20" />
    <path d="M0 53.76L128.0 23.04M0 102.4L128.0 71.68" fill="none" stroke="#eaf6ff" stroke-width="1.536" opacity=".20" />
  </g>
  <path d="M64 24 101 45 101 83 64 104 27 83 27 45Z" fill="none" stroke="#111926" stroke-width="9" stroke-linecap="round" stroke-linejoin="round" />
  <path d="M64 24 101 45 101 83 64 104 27 83 27 45Z" fill="none" stroke="#e0a08a" stroke-width="3" stroke-linecap="round" stroke-linejoin="round" />
  <path d="M69 51 88 61 69 72 57 62Z" fill="#100f1c" stroke="#080d15" stroke-width="4" />
  <path d="M69 57 78 62 69 67Z" fill="url(#metal1)" />
  <path d="M27 112 65 123 101 112" fill="none" stroke="#e0a08a" stroke-width="2" opacity="0.6" />
  <circle cx="67.84" cy="62.72" r="4.48" fill="#f4edc6" opacity=".85" />
</svg>