<svg xmlns="http://www.w3.org/2000/svg" width="512" height="512"><defs><linearGradient id="stone" x2=".8" y2="1"><stop stop-color="#2c3d45"/><stop offset="1" stop-color="#101923"/></linearGradient></defs><g transform="translate(0,0)"><rect x="3" y="3" width="122" height="122" rx="5" fill="url(#stone)"/><path d="M8 120V8H120" fill="none" stroke="#b7cddd" opacity=".12"/><path d="M8 123H123V8" fill="none" stroke="#000" opacity=".4"/><path d="M109 62l6 2" stroke="#a1b3bd" opacity=".07"/><path d="M48 15l3 2" stroke="#a1b3bd" opacity=".07"/><path d="M64 85l11 2" stroke="#a1b3bd" opacity=".07"/><path d="M117 87l11 2" stroke="#a1b3bd" opacity=".07"/><path d="M63 38l10 2" stroke="#a1b3bd" opacity=".07"/><path d="M69 108l9 2" stroke="#a1b3bd" opacity=".07"/><path d="M107 88l8 2" stroke="#a1b3bd" opacity=".07"/><path d="M104 31l6 2" stroke="#a1b3bd" opacity=".07"/><path d="M95 62l2 2" stroke="#a1b3bd" opacity=".07"/><path d="M85 3L79 22 93 35 88 49" fill="none" stroke="#080f17" opacity=".6"/></g><g transform="translate(128,0)"><rect x="3" y="3" width="122" height="122" rx="5" fill="url(#stone)"/><path d="M8 120V8H120" fill="none" stroke="#b7cddd" opacity=".12"/><path d="M8 123H123V8" fill="none" stroke="#000" opacity=".4"/><path d="M58 24l9 2" stroke="#a1b3bd" opacity=".07"/><path d="M54 92l11 2" stroke="#a1b3bd" opacity=".07"/><path d="M22 30l10 2" stroke="#a1b3bd" opacity=".07"/><path d="M17 42l10 2" stroke="#a1b3bd" opacity=".07"/><path d="M12 72l6 2" stroke="#a1b3bd" opacity=".07"/><path d="M51 73l10 2" stroke="#a1b3bd" opacity=".07"/><path d="M28 64l7 2" stroke="#a1b3bd" opacity=".07"/><path d="M95 67l2 2" stroke="#a1b3bd" opacity=".07"/><path d="M43 66l6 2" stroke="#a1b3bd" opacity=".07"/><path d="M85 3L79 22 93 35 88 49" fill="none" stroke="#080f17" opacity=".6"/></g><g transform="translate(256,0)"><rect x="3" y="3" width="122" height="122" rx="5" fill="url(#stone)"/><path d="M8 120V8H120" fill="none" stroke="#b7cddd" opacity=".12"/><path d="M8 123H123V8" fill="none" stroke="#000" opacity=".4"/><path d="M48 89l6 2" stroke="#a1b3bd" opacity=".07"/><path d="M91 50l9 2" stroke="#a1b3bd" opacity=".07"/><path d="M60 61l10 2" stroke="#a1b3bd" opacity=".07"/><path d="M30 71l10 2" stroke="#a1b3bd" opacity=".07"/><path d="M48 46l11 2" stroke="#a1b3bd" opacity=".07"/><path d="M58 32l5 2" stroke="#a1b3bd" opacity=".07"/><path d="M80 111l5 2" stroke="#a1b3bd" opacity=".07"/><path d="M102 65l7 2" stroke="#a1b3bd" opacity=".07"/><path d="M66 61l6 2" stroke="#a1b3bd" opacity=".07"/><path d="M85 3L79 22 93 35 88 49" fill="none" stroke="#080f17" opacity=".6"/></g><g transform="translate(384,0)"><rect x="3" y="3" width="122" height="122" rx="5" fill="url(#stone)"/><path d="M8 120V8H120" fill="none" stroke="#b7cddd" opacity=".12"/><path d="M8 123H123V8" fill="none" stroke="#000" opacity=".4"/><path d="M62 14l5 2" stroke="#a1b3bd" opacity=".07"/><path d="M25 97l5 2" stroke="#a1b3bd" opacity=".07"/><path d="M108 116l9 2" stroke="#a1b3bd" opacity=".07"/><path d="M82 37l8 2" stroke="#a1b3bd" opacity=".07"/><path d="M112 96l9 2" stroke="#a1b3bd" opacity=".07"/><path d="M68 79l7 2" stroke="#a1b3bd" opacity=".07"/><path d="M99 114l9 2" stroke="#a1b3bd" opacity=".07"/><path d="M67 94l9 2" stroke="#a1b3bd" opacity=".07"/><path d="M34 75l6 2" stroke="#a1b3bd" opacity=".07"/><path d="M85 3L79 22 93 35 88 49" fill="none" stroke="#080f17" opacity=".6"/></g><g transform="translate(0,128)"><rect x="3" y="3" width="122" height="122" rx="5" fill="url(#stone)"/><path d="M8 120V8H120" fill="none" stroke="#b7cddd" opacity=".12"/><path d="M8 123H123V8" fill="none" stroke="#000" opacity=".4"/><path d="M46 84l2 2" stroke="#a1b3bd" opacity=".07"/><path d="M115 84l8 2" stroke="#a1b3bd" opacity=".07"/><path d="M81 113l10 2" stroke="#a1b3bd" opacity=".07"/><path d="M32 65l11 2" stroke="#a1b3bd" opacity=".07"/><path d="M12 24l9 2" stroke="#a1b3bd" opacity=".07"/><path d="M60 112l4 2" stroke="#a1b3bd" opacity=".07"/><path d="M79 62l11 2" stroke="#a1b3bd" opacity=".07"/><path d="M85 16l4 2" stroke="#a1b3bd" opacity=".07"/><path d="M51 14l5 2" stroke="#a1b3bd" opacity=".07"/><path d="M85 3L79 22 93 35 88 49" fill="none" stroke="#080f17" opacity=".6"/></g><g transform="translate(128,128)"><rect x="3" y="3" width="122" height="122" rx="5" fill="url(#stone)"/><path d="M8 120V8H120" fill="none" stroke="#b7cddd" opacity=".12"/><path d="M8 123H123V8" fill="none" stroke="#000" opacity=".4"/><path d="M82 25l3 2" stroke="#a1b3bd" opacity=".07"/><path d="M44 49l9 2" stroke="#a1b3bd" opacity=".07"/><path d="M17 20l7 2" stroke="#a1b3bd" opacity=".07"/><path d="M95 31l9 2" stroke="#a1b3bd" opacity=".07"/><path d="M87 81l10 2" stroke="#a1b3bd" opacity=".07"/><path d="M35 44l4 2" stroke="#a1b3bd" opacity=".07"/><path d="M73 97l2 2" stroke="#a1b3bd" opacity=".07"/><path d="M81 96l6 2" stroke="#a1b3bd" opacity=".07"/><path d="M67 41l9 2" stroke="#a1b3bd" opacity=".07"/><path d="M85 3L79 22 93 35 88 49" fill="none" stroke="#080f17" opacity=".6"/></g><g transform="translate(256,128)"><rect x="3" y="3" width="122" height="122" rx="5" fill="url(#stone)"/><path d="M8 120V8H120" fill="none" stroke="#b7cddd" opacity=".12"/><path d="M8 123H123V8" fill="none" stroke="#000" opacity=".4"/><path d="M96 86l7 2" stroke="#a1b3bd" opacity=".07"/><path d="M39 67l6 2" stroke="#a1b3bd" opacity=".07"/><path d="M70 40l4 2" stroke="#a1b3bd" opacity=".07"/><path d="M25 88l7 2" stroke="#a1b3bd" opacity=".07"/><path d="M91 14l6 2" stroke="#a1b3bd" opacity=".07"/><path d="M75 83l11 2" stroke="#a1b3bd" opacity=".07"/><path d="M109 67l2 2" stroke="#a1b3bd" opacity=".07"/><path d="M38 32l11 2" stroke="#a1b3bd" opacity=".07"/><path d="M99 110l8 2" stroke="#a1b3bd" opacity=".07"/><path d="M85 3L79 22 93 35 88 49" fill="none" stroke="#080f17" opacity=".6"/></g><g transform="translate(384,128)"><rect x="3" y="3" width="122" height="122" rx="5" fill="url(#stone)"/><path d="M8 120V8H120" fill="none" stroke="#b7cddd" opacity=".12"/><path d="M8 123H123V8" fill="none" stroke="#000" opacity=".4"/><path d="M46 36l5 2" stroke="#a1b3bd" opacity=".07"/><path d="M63 74l3 2" stroke="#a1b3bd" opacity=".07"/><path d="M20 28l7 2" stroke="#a1b3bd" opacity=".07"/><path d="M38 53l2 2" stroke="#a1b3bd" opacity=".07"/><path d="M94 53l3 2" stroke="#a1b3bd" opacity=".07"/><path d="M57 57l5 2" stroke="#a1b3bd" opacity=".07"/><path d="M56 58l5 2" stroke="#a1b3bd" opacity=".07"/><path d="M92 56l10 2" stroke="#a1b3bd" opacity=".07"/><path d="M51 49l8 2" stroke="#a1b3bd" opacity=".07"/><path d="M85 3L79 22 93 35 88 49" fill="none" stroke="#080f17" opacity=".6"/></g><g transform="translate(0,256)"><rect x="3" y="3" width="122" height="122" rx="5" fill="url(#stone)"/><path d="M8 120V8H120" fill="none" stroke="#b7cddd" opacity=".12"/><path d="M8 123H123V8" fill="none" stroke="#000" opacity=".4"/><path d="M33 88l9 2" stroke="#a1b3bd" opacity=".07"/><path d="M38 23l2 2" stroke="#a1b3bd" opacity=".07"/><path d="M22 83l9 2" stroke="#a1b3bd" opacity=".07"/><path d="M52 98l8 2" stroke="#a1b3bd" opacity=".07"/><path d="M50 70l10 2" stroke="#a1b3bd" opacity=".07"/><path d="M65 45l3 2" stroke="#a1b3bd" opacity=".07"/><path d="M102 117l8 2" stroke="#a1b3bd" opacity=".07"/><path d="M70 107l5 2" stroke="#a1b3bd" opacity=".07"/><path d="M110 35l3 2" stroke="#a1b3bd" opacity=".07"/><path d="M85 3L79 22 93 35 88 49" fill="none" stroke="#080f17" opacity=".6"/></g><g transform="translate(128,256)"><rect x="3" y="3" width="122" height="122" rx="5" fill="url(#stone)"/><path d="M8 120V8H120" fill="none" stroke="#b7cddd" opacity=".12"/><path d="M8 123H123V8" fill="none" stroke="#000" opacity=".4"/><path d="M43 108l10 2" stroke="#a1b3bd" opacity=".07"/><path d="M38 51l4 2" stroke="#a1b3bd" opacity=".07"/><path d="M116 51l5 2" stroke="#a1b3bd" opacity=".07"/><path d="M98 41l5 2" stroke="#a1b3bd" opacity=".07"/><path d="M90 96l9 2" stroke="#a1b3bd" opacity=".07"/><path d="M10 82l9 2" stroke="#a1b3bd" opacity=".07"/><path d="M78 31l3 2" stroke="#a1b3bd" opacity=".07"/><path d="M80 14l7 2" stroke="#a1b3bd" opacity=".07"/><path d="M35 111l10 2" stroke="#a1b3bd" opacity=".07"/><path d="M85 3L79 22 93 35 88 49" fill="none" stroke="#080f17" opacity=".6"/></g><g transform="translate(256,256)"><rect x="3" y="3" width="122" height="122" rx="5" fill="url(#stone)"/><path d="M8 120V8H120" fill="none" stroke="#b7cddd" opacity=".12"/><path d="M8 123H123V8" fill="none" stroke="#000" opacity=".4"/><path d="M22 92l7 2" stroke="#a1b3bd" opacity=".07"/><path d="M57 31l11 2" stroke="#a1b3bd" opacity=".07"/><path d="M114 11l5 2" stroke="#a1b3bd" opacity=".07"/><path d="M44 79l11 2" stroke="#a1b3bd" opacity=".07"/><path d="M72 21l4 2" stroke="#a1b3bd" opacity=".07"/><path d="M37 23l7 2" stroke="#a1b3bd" opacity=".07"/><path d="M26 35l6 2" stroke="#a1b3bd" opacity=".07"/><path d="M83 54l3 2" stroke="#a1b3bd" opacity=".07"/><path d="M22 89l9 2" stroke="#a1b3bd" opacity=".07"/><path d="M85 3L79 22 93 35 88 49" fill="none" stroke="#080f17" opacity=".6"/></g><g transform="translate(384,256)"><rect x="3" y="3" width="122" height="122" rx="5" fill="url(#stone)"/><path d="M8 120V8H120" fill="none" stroke="#b7cddd" opacity=".12"/><path d="M8 123H123V8" fill="none" stroke="#000" opacity=".4"/><path d="M63 23l10 2" stroke="#a1b3bd" opacity=".07"/><path d="M50 20l10 2" stroke="#a1b3bd" opacity=".07"/><path d="M88 100l9 2" stroke="#a1b3bd" opacity=".07"/><path d="M17 71l4 2" stroke="#a1b3bd" opacity=".07"/><path d="M30 36l10 2" stroke="#a1b3bd" opacity=".07"/><path d="M63 70l6 2" stroke="#a1b3bd" opacity=".07"/><path d="M99 112l3 2" stroke="#a1b3bd" opacity=".07"/><path d="M85 15l4 2" stroke="#a1b3bd" opacity=".07"/><path d="M24 111l8 2" stroke="#a1b3bd" opacity=".07"/><path d="M85 3L79 22 93 35 88 49" fill="none" stroke="#080f17" opacity=".6"/></g><g transform="translate(0,384)"><rect x="3" y="3" width="122" height="122" rx="5" fill="url(#stone)"/><path d="M8 120V8H120" fill="none" stroke="#b7cddd" opacity=".12"/><path d="M8 123H123V8" fill="none" stroke="#000" opacity=".4"/><path d="M53 21l5 2" stroke="#a1b3bd" opacity=".07"/><path d="M95 46l6 2" stroke="#a1b3bd" opacity=".07"/><path d="M23 86l2 2" stroke="#a1b3bd" opacity=".07"/><path d="M77 58l2 2" stroke="#a1b3bd" opacity=".07"/><path d="M79 17l8 2" stroke="#a1b3bd" opacity=".07"/><path d="M87 82l4 2" stroke="#a1b3bd" opacity=".07"/><path d="M50 23l7 2" stroke="#a1b3bd" opacity=".07"/><path d="M52 42l3 2" stroke="#a1b3bd" opacity=".07"/><path d="M83 90l4 2" stroke="#a1b3bd" opacity=".07"/><path d="M85 3L79 22 93 35 88 49" fill="none" stroke="#080f17" opacity=".6"/></g><g transform="translate(128,384)"><rect x="3" y="3" width="122" height="122" rx="5" fill="url(#stone)"/><path d="M8 120V8H120" fill="none" stroke="#b7cddd" opacity=".12"/><path d="M8 123H123V8" fill="none" stroke="#000" opacity=".4"/><path d="M57 109l6 2" stroke="#a1b3bd" opacity=".07"/><path d="M32 13l7 2" stroke="#a1b3bd" opacity=".07"/><path d="M93 58l6 2" stroke="#a1b3bd" opacity=".07"/><path d="M96 21l6 2" stroke="#a1b3bd" opacity=".07"/><path d="M10 85l8 2" stroke="#a1b3bd" opacity=".07"/><path d="M45 86l9 2" stroke="#a1b3bd" opacity=".07"/><path d="M78 46l6 2" stroke="#a1b3bd" opacity=".07"/><path d="M102 67l9 2" stroke="#a1b3bd" opacity=".07"/><path d="M94 34l5 2" stroke="#a1b3bd" opacity=".07"/><path d="M85 3L79 22 93 35 88 49" fill="none" stroke="#080f17" opacity=".6"/></g><g transform="translate(256,384)"><rect x="3" y="3" width="122" height="122" rx="5" fill="url(#stone)"/><path d="M8 120V8H120" fill="none" stroke="#b7cddd" opacity=".12"/><path d="M8 123H123V8" fill="none" stroke="#000" opacity=".4"/><path d="M75 92l8 2" stroke="#a1b3bd" opacity=".07"/><path d="M16 79l4 2" stroke="#a1b3bd" opacity=".07"/><path d="M95 113l11 2" stroke="#a1b3bd" opacity=".07"/><path d="M16 68l10 2" stroke="#a1b3bd" opacity=".07"/><path d="M112 34l4 2" stroke="#a1b3bd" opacity=".07"/><path d="M63 80l11 2" stroke="#a1b3bd" opacity=".07"/><path d="M69 38l4 2" stroke="#a1b3bd" opacity=".07"/><path d="M13 49l2 2" stroke="#a1b3bd" opacity=".07"/><path d="M89 41l7 2" stroke="#a1b3bd" opacity=".07"/><path d="M85 3L79 22 93 35 88 49" fill="none" stroke="#080f17" opacity=".6"/></g><g transform="translate(384,384)"><rect x="3" y="3" width="122" height="122" rx="5" fill="url(#stone)"/><path d="M8 120V8H120" fill="none" stroke="#b7cddd" opacity=".12"/><path d="M8 123H123V8" fill="none" stroke="#000" opacity=".4"/><path d="M44 16l7 2" stroke="#a1b3bd" opacity=".07"/><path d="M117 65l9 2" stroke="#a1b3bd" opacity=".07"/><path d="M66 54l10 2" stroke="#a1b3bd" opacity=".07"/><path d="M77 48l5 2" stroke="#a1b3bd" opacity=".07"/><path d="M60 30l6 2" stroke="#a1b3bd" opacity=".07"/><path d="M61 103l11 2" stroke="#a1b3bd" opacity=".07"/><path d="M78 109l5 2" stroke="#a1b3bd" opacity=".07"/><path d="M51 39l2 2" stroke="#a1b3bd" opacity=".07"/><path d="M52 56l6 2" stroke="#a1b3bd" opacity=".07"/><path d="M85 3L79 22 93 35 88 49" fill="none" stroke="#080f17" opacity=".6"/></g></svg>