<svg xmlns="http://www.w3.org/2000/svg" width="512" height="512"><defs><linearGradient id="stone" x2=".8" y2="1"><stop stop-color="#2c403f"/><stop offset="1" stop-color="#101923"/></linearGradient></defs><g transform="translate(0,0)"><rect x="3" y="3" width="122" height="122" rx="5" fill="url(#stone)"/><path d="M8 120V8H120" fill="none" stroke="#b7cddd" opacity=".12"/><path d="M8 123H123V8" fill="none" stroke="#000" opacity=".4"/><path d="M104 40l11 2" stroke="#a1b3bd" opacity=".07"/><path d="M44 46l6 2" stroke="#a1b3bd" opacity=".07"/><path d="M30 96l7 2" stroke="#a1b3bd" opacity=".07"/><path d="M50 26l10 2" stroke="#a1b3bd" opacity=".07"/><path d="M42 35l10 2" stroke="#a1b3bd" opacity=".07"/><path d="M15 23l2 2" stroke="#a1b3bd" opacity=".07"/><path d="M91 105l6 2" stroke="#a1b3bd" opacity=".07"/><path d="M105 109l11 2" stroke="#a1b3bd" opacity=".07"/><path d="M101 70l9 2" stroke="#a1b3bd" opacity=".07"/><path d="M5 80Q40 85 20 123M5 85Q35 100 44 120" fill="none" stroke="#547357" opacity=".4" stroke-width="3"/></g><g transform="translate(128,0)"><rect x="3" y="3" width="122" height="122" rx="5" fill="url(#stone)"/><path d="M8 120V8H120" fill="none" stroke="#b7cddd" opacity=".12"/><path d="M8 123H123V8" fill="none" stroke="#000" opacity=".4"/><path d="M48 90l10 2" stroke="#a1b3bd" opacity=".07"/><path d="M115 113l9 2" stroke="#a1b3bd" opacity=".07"/><path d="M96 17l8 2" stroke="#a1b3bd" opacity=".07"/><path d="M28 97l2 2" stroke="#a1b3bd" opacity=".07"/><path d="M17 41l3 2" stroke="#a1b3bd" opacity=".07"/><path d="M98 95l9 2" stroke="#a1b3bd" opacity=".07"/><path d="M64 101l7 2" stroke="#a1b3bd" opacity=".07"/><path d="M117 65l2 2" stroke="#a1b3bd" opacity=".07"/><path d="M36 114l4 2" stroke="#a1b3bd" opacity=".07"/><path d="M5 80Q40 85 20 123M5 85Q35 100 44 120" fill="none" stroke="#547357" opacity=".4" stroke-width="3"/></g><g transform="translate(256,0)"><rect x="3" y="3" width="122" height="122" rx="5" fill="url(#stone)"/><path d="M8 120V8H120" fill="none" stroke="#b7cddd" opacity=".12"/><path d="M8 123H123V8" fill="none" stroke="#000" opacity=".4"/><path d="M33 86l6 2" stroke="#a1b3bd" opacity=".07"/><path d="M63 22l11 2" stroke="#a1b3bd" opacity=".07"/><path d="M15 22l11 2" stroke="#a1b3bd" opacity=".07"/><path d="M44 10l5 2" stroke="#a1b3bd" opacity=".07"/><path d="M105 15l2 2" stroke="#a1b3bd" opacity=".07"/><path d="M69 90l4 2" stroke="#a1b3bd" opacity=".07"/><path d="M77 104l8 2" stroke="#a1b3bd" opacity=".07"/><path d="M68 21l3 2" stroke="#a1b3bd" opacity=".07"/><path d="M86 56l7 2" stroke="#a1b3bd" opacity=".07"/><path d="M5 80Q40 85 20 123M5 85Q35 100 44 120" fill="none" stroke="#547357" opacity=".4" stroke-width="3"/></g><g transform="translate(384,0)"><rect x="3" y="3" width="122" height="122" rx="5" fill="url(#stone)"/><path d="M8 120V8H120" fill="none" stroke="#b7cddd" opacity=".12"/><path d="M8 123H123V8" fill="none" stroke="#000" opacity=".4"/><path d="M61 46l7 2" stroke="#a1b3bd" opacity=".07"/><path d="M55 44l4 2" stroke="#a1b3bd" opacity=".07"/><path d="M41 38l11 2" stroke="#a1b3bd" opacity=".07"/><path d="M17 25l10 2" stroke="#a1b3bd" opacity=".07"/><path d="M70 61l2 2" stroke="#a1b3bd" opacity=".07"/><path d="M57 105l9 2" stroke="#a1b3bd" opacity=".07"/><path d="M26 19l9 2" stroke="#a1b3bd" opacity=".07"/><path d="M53 100l8 2" stroke="#a1b3bd" opacity=".07"/><path d="M42 104l7 2" stroke="#a1b3bd" opacity=".07"/><path d="M5 80Q40 85 20 123M5 85Q35 100 44 120" fill="none" stroke="#547357" opacity=".4" stroke-width="3"/></g><g transform="translate(0,128)"><rect x="3" y="3" width="122" height="122" rx="5" fill="url(#stone)"/><path d="M8 120V8H120" fill="none" stroke="#b7cddd" opacity=".12"/><path d="M8 123H123V8" fill="none" stroke="#000" opacity=".4"/><path d="M47 59l9 2" stroke="#a1b3bd" opacity=".07"/><path d="M82 43l2 2" stroke="#a1b3bd" opacity=".07"/><path d="M90 40l9 2" stroke="#a1b3bd" opacity=".07"/><path d="M67 93l6 2" stroke="#a1b3bd" opacity=".07"/><path d="M84 49l8 2" stroke="#a1b3bd" opacity=".07"/><path d="M15 13l9 2" stroke="#a1b3bd" opacity=".07"/><path d="M99 91l8 2" stroke="#a1b3bd" opacity=".07"/><path d="M50 93l5 2" stroke="#a1b3bd" opacity=".07"/><path d="M70 36l11 2" stroke="#a1b3bd" opacity=".07"/><path d="M5 80Q40 85 20 123M5 85Q35 100 44 120" fill="none" stroke="#547357" opacity=".4" stroke-width="3"/></g><g transform="translate(128,128)"><rect x="3" y="3" width="122" height="122" rx="5" fill="url(#stone)"/><path d="M8 120V8H120" fill="none" stroke="#b7cddd" opacity=".12"/><path d="M8 123H123V8" fill="none" stroke="#000" opacity=".4"/><path d="M62 113l9 2" stroke="#a1b3bd" opacity=".07"/><path d="M19 64l9 2" stroke="#a1b3bd" opacity=".07"/><path d="M23 114l5 2" stroke="#a1b3bd" opacity=".07"/><path d="M21 26l11 2" stroke="#a1b3bd" opacity=".07"/><path d="M23 66l6 2" stroke="#a1b3bd" opacity=".07"/><path d="M21 98l9 2" stroke="#a1b3bd" opacity=".07"/><path d="M21 117l5 2" stroke="#a1b3bd" opacity=".07"/><path d="M97 18l6 2" stroke="#a1b3bd" opacity=".07"/><path d="M66 117l5 2" stroke="#a1b3bd" opacity=".07"/><path d="M5 80Q40 85 20 123M5 85Q35 100 44 120" fill="none" stroke="#547357" opacity=".4" stroke-width="3"/></g><g transform="translate(256,128)"><rect x="3" y="3" width="122" height="122" rx="5" fill="url(#stone)"/><path d="M8 120V8H120" fill="none" stroke="#b7cddd" opacity=".12"/><path d="M8 123H123V8" fill="none" stroke="#000" opacity=".4"/><path d="M28 107l4 2" stroke="#a1b3bd" opacity=".07"/><path d="M108 90l2 2" stroke="#a1b3bd" opacity=".07"/><path d="M38 84l3 2" stroke="#a1b3bd" opacity=".07"/><path d="M37 92l7 2" stroke="#a1b3bd" opacity=".07"/><path d="M117 107l3 2" stroke="#a1b3bd" opacity=".07"/><path d="M32 110l6 2" stroke="#a1b3bd" opacity=".07"/><path d="M105 75l7 2" stroke="#a1b3bd" opacity=".07"/><path d="M38 106l4 2" stroke="#a1b3bd" opacity=".07"/><path d="M24 56l3 2" stroke="#a1b3bd" opacity=".07"/><path d="M5 80Q40 85 20 123M5 85Q35 100 44 120" fill="none" stroke="#547357" opacity=".4" stroke-width="3"/></g><g transform="translate(384,128)"><rect x="3" y="3" width="122" height="122" rx="5" fill="url(#stone)"/><path d="M8 120V8H120" fill="none" stroke="#b7cddd" opacity=".12"/><path d="M8 123H123V8" fill="none" stroke="#000" opacity=".4"/><path d="M102 62l5 2" stroke="#a1b3bd" opacity=".07"/><path d="M102 41l3 2" stroke="#a1b3bd" opacity=".07"/><path d="M95 24l8 2" stroke="#a1b3bd" opacity=".07"/><path d="M22 22l3 2" stroke="#a1b3bd" opacity=".07"/><path d="M35 29l5 2" stroke="#a1b3bd" opacity=".07"/><path d="M58 66l6 2" stroke="#a1b3bd" opacity=".07"/><path d="M117 17l6 2" stroke="#a1b3bd" opacity=".07"/><path d="M65 33l3 2" stroke="#a1b3bd" opacity=".07"/><path d="M80 66l2 2" stroke="#a1b3bd" opacity=".07"/><path d="M5 80Q40 85 20 123M5 85Q35 100 44 120" fill="none" stroke="#547357" opacity=".4" stroke-width="3"/></g><g transform="translate(0,256)"><rect x="3" y="3" width="122" height="122" rx="5" fill="url(#stone)"/><path d="M8 120V8H120" fill="none" stroke="#b7cddd" opacity=".12"/><path d="M8 123H123V8" fill="none" stroke="#000" opacity=".4"/><path d="M74 45l9 2" stroke="#a1b3bd" opacity=".07"/><path d="M52 41l7 2" stroke="#a1b3bd" opacity=".07"/><path d="M114 22l6 2" stroke="#a1b3bd" opacity=".07"/><path d="M55 26l7 2" stroke="#a1b3bd" opacity=".07"/><path d="M79 15l7 2" stroke="#a1b3bd" opacity=".07"/><path d="M62 109l10 2" stroke="#a1b3bd" opacity=".07"/><path d="M54 53l6 2" stroke="#a1b3bd" opacity=".07"/><path d="M76 75l6 2" stroke="#a1b3bd" opacity=".07"/><path d="M39 114l10 2" stroke="#a1b3bd" opacity=".07"/><path d="M5 80Q40 85 20 123M5 85Q35 100 44 120" fill="none" stroke="#547357" opacity=".4" stroke-width="3"/></g><g transform="translate(128,256)"><rect x="3" y="3" width="122" height="122" rx="5" fill="url(#stone)"/><path d="M8 120V8H120" fill="none" stroke="#b7cddd" opacity=".12"/><path d="M8 123H123V8" fill="none" stroke="#000" opacity=".4"/><path d="M100 94l4 2" stroke="#a1b3bd" opacity=".07"/><path d="M113 92l8 2" stroke="#a1b3bd" opacity=".07"/><path d="M43 17l2 2" stroke="#a1b3bd" opacity=".07"/><path d="M26 78l7 2" stroke="#a1b3bd" opacity=".07"/><path d="M105 67l6 2" stroke="#a1b3bd" opacity=".07"/><path d="M16 26l4 2" stroke="#a1b3bd" opacity=".07"/><path d="M104 54l5 2" stroke="#a1b3bd" opacity=".07"/><path d="M106 84l5 2" stroke="#a1b3bd" opacity=".07"/><path d="M33 65l11 2" stroke="#a1b3bd" opacity=".07"/><path d="M5 80Q40 85 20 123M5 85Q35 100 44 120" fill="none" stroke="#547357" opacity=".4" stroke-width="3"/></g><g transform="translate(256,256)"><rect x="3" y="3" width="122" height="122" rx="5" fill="url(#stone)"/><path d="M8 120V8H120" fill="none" stroke="#b7cddd" opacity=".12"/><path d="M8 123H123V8" fill="none" stroke="#000" opacity=".4"/><path d="M87 106l7 2" stroke="#a1b3bd" opacity=".07"/><path d="M40 40l11 2" stroke="#a1b3bd" opacity=".07"/><path d="M24 36l2 2" stroke="#a1b3bd" opacity=".07"/><path d="M35 68l10 2" stroke="#a1b3bd" opacity=".07"/><path d="M30 70l10 2" stroke="#a1b3bd" opacity=".07"/><path d="M19 64l4 2" stroke="#a1b3bd" opacity=".07"/><path d="M34 42l8 2" stroke="#a1b3bd" opacity=".07"/><path d="M21 55l7 2" stroke="#a1b3bd" opacity=".07"/><path d="M85 47l7 2" stroke="#a1b3bd" opacity=".07"/><path d="M5 80Q40 85 20 123M5 85Q35 100 44 120" fill="none" stroke="#547357" opacity=".4" stroke-width="3"/></g><g transform="translate(384,256)"><rect x="3" y="3" width="122" height="122" rx="5" fill="url(#stone)"/><path d="M8 120V8H120" fill="none" stroke="#b7cddd" opacity=".12"/><path d="M8 123H123V8" fill="none" stroke="#000" opacity=".4"/><path d="M18 16l10 2" stroke="#a1b3bd" opacity=".07"/><path d="M84 47l4 2" stroke="#a1b3bd" opacity=".07"/><path d="M14 106l10 2" stroke="#a1b3bd" opacity=".07"/><path d="M43 12l7 2" stroke="#a1b3bd" opacity=".07"/><path d="M33 116l11 2" stroke="#a1b3bd" opacity=".07"/><path d="M47 107l4 2" stroke="#a1b3bd" opacity=".07"/><path d="M115 98l3 2" stroke="#a1b3bd" opacity=".07"/><path d="M74 109l2 2" stroke="#a1b3bd" opacity=".07"/><path d="M107 100l8 2" stroke="#a1b3bd" opacity=".07"/><path d="M5 80Q40 85 20 123M5 85Q35 100 44 120" fill="none" stroke="#547357" opacity=".4" stroke-width="3"/></g><g transform="translate(0,384)"><rect x="3" y="3" width="122" height="122" rx="5" fill="url(#stone)"/><path d="M8 120V8H120" fill="none" stroke="#b7cddd" opacity=".12"/><path d="M8 123H123V8" fill="none" stroke="#000" opacity=".4"/><path d="M13 37l7 2" stroke="#a1b3bd" opacity=".07"/><path d="M41 34l10 2" stroke="#a1b3bd" opacity=".07"/><path d="M95 92l11 2" stroke="#a1b3bd" opacity=".07"/><path d="M94 25l9 2" stroke="#a1b3bd" opacity=".07"/><path d="M61 84l5 2" stroke="#a1b3bd" opacity=".07"/><path d="M87 88l4 2" stroke="#a1b3bd" opacity=".07"/><path d="M24 78l4 2" stroke="#a1b3bd" opacity=".07"/><path d="M27 101l11 2" stroke="#a1b3bd" opacity=".07"/><path d="M66 105l8 2" stroke="#a1b3bd" opacity=".07"/><path d="M5 80Q40 85 20 123M5 85Q35 100 44 120" fill="none" stroke="#547357" opacity=".4" stroke-width="3"/></g><g transform="translate(128,384)"><rect x="3" y="3" width="122" height="122" rx="5" fill="url(#stone)"/><path d="M8 120V8H120" fill="none" stroke="#b7cddd" opacity=".12"/><path d="M8 123H123V8" fill="none" stroke="#000" opacity=".4"/><path d="M93 32l2 2" stroke="#a1b3bd" opacity=".07"/><path d="M64 61l7 2" stroke="#a1b3bd" opacity=".07"/><path d="M12 49l8 2" stroke="#a1b3bd" opacity=".07"/><path d="M73 86l8 2" stroke="#a1b3bd" opacity=".07"/><path d="M57 77l5 2" stroke="#a1b3bd" opacity=".07"/><path d="M83 45l11 2" stroke="#a1b3bd" opacity=".07"/><path d="M88 45l6 2" stroke="#a1b3bd" opacity=".07"/><path d="M93 56l5 2" stroke="#a1b3bd" opacity=".07"/><path d="M49 60l5 2" stroke="#a1b3bd" opacity=".07"/><path d="M5 80Q40 85 20 123M5 85Q35 100 44 120" fill="none" stroke="#547357" opacity=".4" stroke-width="3"/></g><g transform="translate(256,384)"><rect x="3" y="3" width="122" height="122" rx="5" fill="url(#stone)"/><path d="M8 120V8H120" fill="none" stroke="#b7cddd" opacity=".12"/><path d="M8 123H123V8" fill="none" stroke="#000" opacity=".4"/><path d="M74 38l4 2" stroke="#a1b3bd" opacity=".07"/><path d="M67 16l6 2" stroke="#a1b3bd" opacity=".07"/><path d="M71 28l10 2" stroke="#a1b3bd" opacity=".07"/><path d="M31 56l6 2" stroke="#a1b3bd" opacity=".07"/><path d="M88 45l6 2" stroke="#a1b3bd" opacity=".07"/><path d="M50 42l11 2" stroke="#a1b3bd" opacity=".07"/><path d="M71 65l2 2" stroke="#a1b3bd" opacity=".07"/><path d="M25 36l11 2" stroke="#a1b3bd" opacity=".07"/><path d="M102 45l9 2" stroke="#a1b3bd" opacity=".07"/><path d="M5 80Q40 85 20 123M5 85Q35 100 44 120" fill="none" stroke="#547357" opacity=".4" stroke-width="3"/></g><g transform="translate(384,384)"><rect x="3" y="3" width="122" height="122" rx="5" fill="url(#stone)"/><path d="M8 120V8H120" fill="none" stroke="#b7cddd" opacity=".12"/><path d="M8 123H123V8" fill="none" stroke="#000" opacity=".4"/><path d="M60 40l8 2" stroke="#a1b3bd" opacity=".07"/><path d="M48 109l7 2" stroke="#a1b3bd" opacity=".07"/><path d="M116 33l3 2" stroke="#a1b3bd" opacity=".07"/><path d="M110 93l10 2" stroke="#a1b3bd" opacity=".07"/><path d="M65 80l8 2" stroke="#a1b3bd" opacity=".07"/><path d="M100 89l5 2" stroke="#a1b3bd" opacity=".07"/><path d="M34 16l2 2" stroke="#a1b3bd" opacity=".07"/><path d="M28 84l3 2" stroke="#a1b3bd" opacity=".07"/><path d="M82 44l9 2" stroke="#a1b3bd" opacity=".07"/><path d="M5 80Q40 85 20 123M5 85Q35 100 44 120" fill="none" stroke="#547357" opacity=".4" stroke-width="3"/></g></svg>