<svg xmlns="http://www.w3.org/2000/svg" width="512" height="512" viewBox="0 0 512 512"><defs><linearGradient id="s" x2="0.8" y2="1"><stop stop-color="#28543a"/><stop offset="1" stop-color="#0b1c19"/></linearGradient></defs><g fill="url(#s)" stroke="#8be09c" stroke-opacity=".12"><rect x="3" y="3" width="122" height="122" rx="4"/><rect x="131" y="3" width="122" height="122" rx="4"/><rect x="259" y="3" width="122" height="122" rx="4"/><rect x="387" y="3" width="122" height="122" rx="4"/><rect x="3" y="131" width="122" height="122" rx="4"/><rect x="131" y="131" width="122" height="122" rx="4"/><rect x="259" y="131" width="122" height="122" rx="4"/><rect x="387" y="131" width="122" height="122" rx="4"/><rect x="3" y="259" width="122" height="122" rx="4"/><rect x="131" y="259" width="122" height="122" rx="4"/><rect x="259" y="259" width="122" height="122" rx="4"/><rect x="387" y="259" width="122" height="122" rx="4"/><rect x="3" y="387" width="122" height="122" rx="4"/><rect x="131" y="387" width="122" height="122" rx="4"/><rect x="259" y="387" width="122" height="122" rx="4"/><rect x="387" y="387" width="122" height="122" rx="4"/></g><g fill="none" stroke="#9be5a4" stroke-width="3" opacity=".14"><path d="M12 82l28-34 22 26 28-38 38 43M140 108l32-42 20 21 34-39 24 31M268 86l26-38 30 37 38-26 22 28M396 108l26-42 32 35 22-26 28 32M12 216l28-30 28 32 32-38 24 26M140 242l32-38 28 27 30-31 24 30M268 218l32-32 24 26 34-39 22 30M396 240l28-34 28 30 28-39 26 30M12 350l28-34 28 27 28-38 30 31M140 376l32-38 28 32 30-35 24 27M268 350l30-36 28 30 32-39 22 28M396 374l28-36 28 31 30-40 24 30M12 478l30-34 26 29 32-39 24 26M140 504l30-38 28 31 30-36 24 29M268 480l28-36 30 31 32-40 24 29M396 506l30-40 26 31 30-36 24 28"/></g></svg>
