<svg xmlns="http://www.w3.org/2000/svg" width="64" height="64" viewBox="0 0 128 128">
  <defs>
    <linearGradient id="metal0" x1="0%" y1="0%" x2="80%" y2="100%">
      <stop offset="0%" stop-color="#cbb49e" />
      <stop offset="38%" stop-color="#a57e58" />
      <stop offset="100%" stop-color="#56422e" />
    </linearGradient>
    <linearGradient id="metal1" x1="0%" y1="0%" x2="80%" y2="100%">
      <stop offset="0%" stop-color="#fff6e2" />
      <stop offset="38%" stop-color="#fff0cd" />
      <stop offset="100%" stop-color="#857d6b" />
    </linearGradient>
    <clipPath id="hull">
      <path d="M8 45 40 31 45 12 75 18 92 34 113 34 112 60 121 80 91 93 82 110 49 101 28 110 21 87 5 73Z" fill="white" stroke="none" stroke-width="4" stroke-linejoin="round" />
    </clipPath>
  </defs>
  <path d="M8 45 40 31 45 12 75 18 92 34 113 34 112 60 121 80 91 93 82 110 49 101 28 110 21 87 5 73Z" fill="#080d16" stroke="#080d16" stroke-width="13" stroke-linejoin="round" />
  <path d="M8 45 40 31 45 12 75 18 92 34 113 34 112 60 121 80 91 93 82 110 49 101 28 110 21 87 5 73Z" fill="url(#metal0)" stroke="#f0c497" stroke-width="4" stroke-linejoin="round" />
  <g clip-path="url(#hull)">
    <path d="M0 0H128.0L32.0 128.0H0Z" fill="#e4f8ff" opacity=".10" />
    <path d="M64.0 0L89.6 128.0H128.0V0Z" fill="#000b20" opacity=".20" />
    <path d="M0 53.76L128.0 23.04M0 102.4L128.0 71.68" fill="none" stroke="#eaf6ff" stroke-width="1.536" opacity=".20" />
  </g>
  <path d="M28 49 49 33 85 39 100 61 83 86 42 84Z" fill="#3b3938" stroke="#f0c497" stroke-width="3" stroke-linejoin="round" />
  <path d="M44 56 77 50 82 69 50 76Z" fill="none" stroke="#f0c497" stroke-width="5" stroke-linecap="round" stroke-linejoin="round" />
  <path d="M22 46 12 29M92 34 116 22M94 81 113 96" stroke="#f0c497" stroke-width="7" />
  <circle cx="56" cy="62" r="5" fill="url(#metal1)" />
  <circle cx="67.84" cy="62.72" r="4.48" fill="#f4edc6" opacity=".85" />
</svg>